<?xml version="1.0" encoding="utf-8"?>
<!-- Generator: Adobe Illustrator 22.1.0, SVG Export Plug-In . SVG Version: 6.00 Build 0)  -->
<svg version="1.1" id="Layer_1" xmlns="http://www.w3.org/2000/svg" xmlns:xlink="http://www.w3.org/1999/xlink" x="0px" y="0px"
	 viewBox="0 0 444 50" style="enable-background:new 0 0 444 50;" xml:space="preserve">
<style type="text/css">
	.st0{fill:#374781;}
	.st1{fill:#424242;}
</style>
<g>
	<path class="st0" d="M22.5,47.4c1,0,1.9-0.3,2.7-0.8c0.7-0.6,1.4-1.2,1.9-1.9c0.6-0.8,1.1-1.7,1.6-2.7V26.4l-4.1-1v-1h19.3v1
		l-4.1,1v22.7h-1c-2,0-3.6-0.3-4.8-0.8c-1.2-0.6-2.1-1.2-2.7-1.9c-0.8-0.8-1.3-1.7-1.6-2.7c-0.6,1.2-1.3,2.2-2.2,3.1
		c-0.8,0.8-1.8,1.5-3.1,2.1c-1.3,0.6-2.8,0.9-4.5,0.9c-2.5,0-4.9-0.5-7.3-1.6s-4.3-2.7-6.1-4.8c-1.7-2.1-3.1-4.7-4.1-7.8
		C1.3,32.5,0.8,29,0.8,25s0.5-7.5,1.6-10.6c1-3.1,2.5-5.7,4.4-7.8s4.2-3.7,6.8-4.8s5.5-1.6,8.7-1.6c1.6,0,3,0.2,4.4,0.7
		c1.3,0.5,2.5,1,3.4,1.5c1.1,0.6,2.1,1.4,3,2.2C33.5,4,33.9,3.5,34.3,3s0.8-0.9,1.2-1.2c0.5-0.4,0.9-0.7,1.4-0.9h1.7v12.9h-2.7
		c-0.6-2.2-1.5-4.1-2.6-5.9c-0.9-1.5-2.2-2.9-3.8-4.1c-1.6-1.2-3.5-1.9-5.8-1.9c-1.4,0-2.7,0.4-4,1.1s-2.5,2-3.5,3.8
		s-1.8,4.2-2.4,7.1c-0.6,3-0.9,6.6-0.9,11s0.3,8.1,0.8,11s1.3,5.2,2.2,6.8c0.9,1.7,2,2.9,3.2,3.6C20,47,21.2,47.4,22.5,47.4z"/>
	<path class="st0" d="M86.2,4.3l-5.4-2v-1h12.9v1l-5.4,2v45.4h-2l-31.5-37v32.9l5.4,2v1h-13v-1l5.4-2v-42l-4.7-1.4v-1H55
		c1.4,0,2.5,0.1,3.5,0.4s1.9,0.7,2.6,1.2c0.7,0.5,1.4,1,1.9,1.6s1,1.1,1.4,1.6l21.7,25.4L86.2,4.3L86.2,4.3z"/>
	<path class="st1" d="M122.2,24c3.2,0.1,6.1,0.6,8.6,1.5c1.1,0.4,2.1,0.8,3.2,1.4c1,0.6,2,1.3,2.8,2.1c0.8,0.8,1.5,1.8,2,2.9
		s0.7,2.4,0.7,3.9c0,1.9-0.4,3.6-1.1,5.2c-0.7,1.6-1.9,2.9-3.6,4.1c-1.7,1.2-3.8,2-6.5,2.7c-2.7,0.6-6,0.9-9.9,0.9H98.8v-1l4.1-1
		V3.3l-4.1-1v-1h18.3c3.7,0,6.8,0.3,9.3,0.9s4.6,1.5,6.2,2.6s2.7,2.3,3.5,3.8c0.7,1.4,1.1,2.9,1.1,4.6c0,1.3-0.2,2.5-0.6,3.5
		s-1,1.9-1.7,2.6s-1.5,1.4-2.4,1.9s-1.8,0.9-2.7,1.2c-2.2,0.8-4.7,1.2-7.5,1.3V24H122.2z M114,23h3.1c1.1,0,2.1-0.2,3.2-0.7
		c1-0.5,1.9-1.2,2.7-2c0.8-0.9,1.4-1.9,1.9-3.1s0.7-2.5,0.7-4s-0.2-2.9-0.7-4.2s-1.1-2.3-1.9-3.2s-1.7-1.6-2.7-2.1S118.2,3,117.1,3
		H114V23z M114,24.7V47h4.4c2.7,0,5-1,6.8-2.9s2.7-4.7,2.7-8.3s-0.9-6.3-2.7-8.3c-1.8-1.9-4.1-2.9-6.8-2.9H114V24.7z"/>
	<path class="st1" d="M162.2,13.8c2.8,0,5.3,0.4,7.5,1.2s4.1,2,5.7,3.6c1.6,1.6,2.7,3.4,3.6,5.7s1.2,4.7,1.2,7.5s-0.4,5.3-1.2,7.5
		s-2,4.1-3.6,5.7c-1.6,1.6-3.4,2.7-5.7,3.6c-2.2,0.8-4.7,1.2-7.5,1.2s-5.3-0.4-7.5-1.2s-4.1-2-5.7-3.6c-1.6-1.6-2.7-3.4-3.6-5.7
		c-0.8-2.2-1.2-4.7-1.2-7.5s0.4-5.3,1.2-7.5s2-4.1,3.6-5.7s3.4-2.7,5.7-3.6C156.9,14.2,159.4,13.8,162.2,13.8z M162.2,48.4
		c0.8,0,1.5-0.2,2.3-0.7s1.5-1.4,2.1-2.6c0.6-1.2,1.1-2.9,1.5-5.1c0.4-2.1,0.6-4.9,0.6-8.2s-0.2-6-0.6-8.2c-0.4-2.1-0.9-3.8-1.5-5.1
		c-0.6-1.2-1.3-2.1-2.1-2.6s-1.5-0.7-2.3-0.7s-1.5,0.2-2.3,0.7s-1.5,1.4-2.1,2.6s-1.1,2.9-1.5,5.1c-0.4,2.1-0.6,4.9-0.6,8.2
		s0.2,6,0.6,8.2c0.4,2.1,0.9,3.8,1.5,5.1c0.6,1.2,1.3,2.1,2.1,2.6C160.6,48.1,161.4,48.4,162.2,48.4z"/>
	<path class="st1" d="M203.5,13.8c2.8,0,5.3,0.4,7.5,1.2s4.1,2,5.7,3.6c1.6,1.6,2.7,3.4,3.6,5.7s1.2,4.7,1.2,7.5s-0.4,5.3-1.2,7.5
		s-2,4.1-3.6,5.7c-1.6,1.6-3.4,2.7-5.7,3.6c-2.2,0.8-4.7,1.2-7.5,1.2s-5.3-0.4-7.5-1.2s-4.1-2-5.7-3.6c-1.6-1.6-2.7-3.4-3.6-5.7
		c-0.8-2.2-1.2-4.7-1.2-7.5s0.4-5.3,1.2-7.5s2-4.1,3.6-5.7s3.4-2.7,5.7-3.6C198.2,14.2,200.7,13.8,203.5,13.8z M203.5,48.4
		c0.8,0,1.5-0.2,2.3-0.7s1.5-1.4,2.1-2.6c0.6-1.2,1.1-2.9,1.5-5.1c0.4-2.1,0.6-4.9,0.6-8.2s-0.2-6-0.6-8.2c-0.4-2.1-0.9-3.8-1.5-5.1
		c-0.6-1.2-1.3-2.1-2.1-2.6s-1.5-0.7-2.3-0.7s-1.5,0.2-2.3,0.7s-1.5,1.4-2.1,2.6s-1.1,2.9-1.5,5.1c-0.4,2.1-0.6,4.9-0.6,8.2
		s0.2,6,0.6,8.2c0.4,2.1,0.9,3.8,1.5,5.1c0.6,1.2,1.3,2.1,2.1,2.6C202,48.1,202.8,48.4,203.5,48.4z"/>
	<path class="st1" d="M235.7,1.3c4.1,0,6.1,2,6.1,6.1v23.7l12.5-13.2l-5.1-2v-1h12.9v1l-5.4,2L249,26l13.2,20.7l3.4,1v1h-8.8
		c-1.2,0-2.2-0.1-3.1-0.4s-1.7-0.7-2.4-1.2s-1.4-1.1-1.9-1.8c-0.6-0.7-1.1-1.5-1.7-2.3l-5.8-9.2v12.9l4.1,1v1h-19v-1l4.1-1V3.3
		l-4.1-1v-1H235.7z"/>
	<path class="st1" d="M283.5,49.7c-1.6,0-3.1-0.2-4.3-0.5c-1.2-0.4-2.3-0.8-3.2-1.3c-1-0.5-1.9-1.2-2.6-1.9
		c-0.4,0.5-0.8,0.9-1.2,1.4c-0.4,0.4-0.8,0.7-1.2,0.9c-0.5,0.3-0.9,0.6-1.4,0.7h-1.7V37.5h2.7c0.6,2,1.5,3.8,2.6,5.3
		c0.9,1.3,2.1,2.5,3.5,3.6s3.3,1.6,5.4,1.6c1.9,0,3.3-0.5,4.3-1.4s1.5-2.3,1.5-4c0-1.3-0.5-2.3-1.5-3.3c-1-0.9-2.2-1.8-3.6-2.6
		s-3-1.6-4.7-2.5c-1.7-0.8-3.3-1.8-4.7-2.8c-1.4-1-2.7-2.2-3.6-3.6c-1-1.4-1.5-3-1.5-5c0-1.3,0.3-2.5,0.8-3.6s1.4-2.1,2.5-2.9
		c1.2-0.8,2.6-1.5,4.4-2s4-0.7,6.5-0.7c1.4,0,2.6,0.2,3.7,0.6c1.1,0.4,2.1,0.8,2.9,1.3c0.9,0.5,1.8,1.2,2.6,1.8
		c0.4-0.5,0.8-0.9,1.2-1.3c0.4-0.4,0.8-0.7,1.2-1c0.5-0.3,0.9-0.5,1.4-0.7h1.7V26h-2.7c-0.7-1.9-1.5-3.7-2.5-5.2
		c-0.9-1.3-1.9-2.5-3.3-3.6c-1.3-1.1-2.9-1.7-4.8-1.7c-1.2,0-2.2,0.5-3.1,1.4c-0.9,0.9-1.3,2-1.3,3.4s0.5,2.5,1.5,3.5
		s2.2,1.9,3.6,2.8s3,1.7,4.7,2.5s3.3,1.7,4.7,2.7c1.4,1,2.7,2.2,3.6,3.5c1,1.3,1.5,2.8,1.5,4.6c0,1.4-0.3,2.8-0.8,4
		s-1.4,2.2-2.6,3.1c-1.2,0.9-2.8,1.6-4.8,2C288.9,49.5,286.4,49.7,283.5,49.7z"/>
	<path class="st1" d="M307.3,11.4c0-4.1,2-6.1,6.1-6.1h4.7v9.5h9.5v1.7h-9.5v20.7c0,2.2,0.1,4,0.4,5.4c0.2,1.4,0.6,2.5,1,3.3
		s1,1.4,1.6,1.7s1.3,0.4,2.1,0.4c0.8,0,1.5-0.2,2.2-0.6c0.7-0.4,1.4-0.9,2-1.7c0.6-0.7,1.1-1.7,1.4-2.7c0.3-1.1,0.5-2.3,0.5-3.8h1.7
		c0,3.4-0.8,6-2.5,7.8s-3.9,2.7-6.6,2.7c-2.3,0-4.4-0.3-6.1-0.9c-1.8-0.6-3.3-1.5-4.6-2.6c-1.3-1.1-2.2-2.5-2.9-4
		c-0.7-1.5-1-3.2-1-4.9V16.5h-4.7v-1.7h4.7L307.3,11.4L307.3,11.4z"/>
	<path class="st1" d="M352.7,13.8c2.8,0,5.3,0.4,7.5,1.2s4.1,2,5.7,3.6s2.7,3.4,3.6,5.7s1.2,4.7,1.2,7.5s-0.4,5.3-1.2,7.5
		c-0.8,2.2-2,4.1-3.6,5.7c-1.6,1.6-3.4,2.7-5.7,3.6c-2.2,0.8-4.7,1.2-7.5,1.2s-5.3-0.4-7.5-1.2s-4.1-2-5.7-3.6s-2.7-3.4-3.6-5.7
		c-0.8-2.2-1.2-4.7-1.2-7.5s0.4-5.3,1.2-7.5s2-4.1,3.6-5.7s3.4-2.7,5.7-3.6C347.4,14.2,349.9,13.8,352.7,13.8z M352.7,48.4
		c0.8,0,1.5-0.2,2.3-0.7s1.5-1.4,2.1-2.6c0.6-1.2,1.1-2.9,1.5-5.1c0.4-2.1,0.6-4.9,0.6-8.2s-0.2-6-0.6-8.2c-0.4-2.1-0.9-3.8-1.5-5.1
		c-0.6-1.2-1.3-2.1-2.1-2.6c-0.8-0.5-1.5-0.7-2.3-0.7s-1.5,0.2-2.3,0.7s-1.5,1.4-2.1,2.6s-1.1,2.9-1.5,5.1c-0.4,2.1-0.6,4.9-0.6,8.2
		s0.2,6,0.6,8.2c0.4,2.1,0.9,3.8,1.5,5.1c0.6,1.2,1.3,2.1,2.1,2.6C351.1,48.1,351.9,48.4,352.7,48.4z"/>
	<path class="st1" d="M399.5,16.2c-1.4,0-2.6,0.3-3.6,0.8c-1.1,0.6-2,1.2-2.7,1.9c-0.8,0.8-1.5,1.7-2.2,2.7v25.1l4.1,1v1h-19v-1
		l4.1-1V16.9l-4.1-1v-1h6.1c1.6,0,2.9,0.3,3.9,0.8c1,0.5,1.8,1.1,2.4,1.8c0.7,0.8,1.2,1.6,1.5,2.5c0.7-1,1.5-1.9,2.5-2.7
		c0.9-0.7,1.9-1.3,3.2-1.9c1.2-0.6,2.7-0.8,4.4-0.8c2.4,0,4.2,0.6,5.4,1.7s1.8,2.7,1.8,4.7c0,1.5-0.5,2.8-1.4,3.7
		c-0.9,0.9-2.2,1.4-3.7,1.4c-0.4,0-0.7,0-1.1,0c-0.3,0-0.6-0.1-0.8-0.1c-0.3,0-0.6-0.1-0.8-0.2L399.5,16.2L399.5,16.2z"/>
	<path class="st1" d="M428.6,49.7c-5.8,0-10.3-1.6-13.5-4.8s-4.8-7.6-4.8-13.2c0-2.8,0.4-5.3,1.2-7.5s1.9-4.1,3.4-5.7
		c1.4-1.6,3.2-2.7,5.3-3.6c2.1-0.8,4.3-1.2,6.7-1.2c2.5,0,4.8,0.4,6.8,1.1c2,0.7,3.7,1.7,5.1,2.9s2.5,2.7,3.2,4.3
		c0.7,1.7,1.1,3.4,1.1,5.3c0,0.6,0,1.2-0.1,1.7s-0.1,0.9-0.2,1.3c-0.1,0.5-0.2,0.8-0.3,1.2c-2,0.4-4.1,0.7-6.3,1
		c-1.9,0.3-4.1,0.5-6.6,0.7s-5.1,0.3-7.8,0.3c0,2.8,0.2,5.1,0.6,7s1,3.4,1.7,4.5s1.6,1.9,2.6,2.4s2.1,0.7,3.3,0.7
		c1.4,0,2.6-0.2,3.8-0.7c1.2-0.5,2.2-1.2,3.1-2s1.6-1.8,2.1-2.8c0.5-1.1,0.8-2.1,0.8-3.2h1.7c0,1.4-0.3,2.7-0.9,3.9
		s-1.5,2.4-2.6,3.4s-2.5,1.8-4.1,2.3C432.3,49.5,430.6,49.7,428.6,49.7z M421.8,31.8c1.5,0,2.9,0,4.1-0.1s2.2-0.1,3-0.2
		c0.9-0.1,1.8-0.2,2.4-0.3c0.1-0.5,0.2-0.9,0.3-1.5c0.1-0.5,0.2-1.1,0.2-1.7c0.1-0.6,0.1-1.3,0.1-1.9c0-2-0.2-3.7-0.5-5.1
		s-0.7-2.5-1.2-3.4s-1-1.5-1.6-1.8c-0.6-0.4-1.2-0.5-1.8-0.5c-0.6,0-1.2,0.2-1.8,0.6c-0.6,0.4-1.2,1.2-1.6,2.4
		c-0.5,1.2-0.9,2.9-1.2,5.1C422,25.5,421.8,28.3,421.8,31.8z"/>
</g>
</svg>
